; OM File Header - Saved 2022/07/19 20:55:42
; (6.15 :patc (om-make-point 118 210) (om-make-point -188 -933) (om-make-point 811 766) "" 183 0 nil "2019/09/09 16:14:43")
; End File Header
; External resources 
; (list (list (quote :abstraction) "#P\"../find_motiv/find_patterns.omp\""))
(in-package :om)(load-lib-for (quote nil))(setf *om-current-persistent* (om-load-patch1 "cartas2" (quote ((let ((box (om-load-boxcall (quote bastype) "aux 4" (quote t) (quote nil) (om-make-point 291 520) (om-make-point 27 30) 0 "0" nil))) (when (fboundp (quote set-active)) (set-active box nil)) box) (let ((box (om-load-editor-box1 "CHORD-SEQ 4" (quote chord-seq) (quote ((om-load-inputfun (quote input-funbox) "object" "self" nil) (om-load-inputfun (quote input-funbox) "pitches (mc): list or list of lists" "lmidic" (list 6000)) (om-load-inputfun (quote input-funbox) "onsets (ms): list" "lonset" (list 0 1000)) (om-load-inputfun (quote input-funbox) "durations (ms): list or list of lists" "ldur" (list 1000)) (om-load-inputfun (quote input-funbox) "velocities (0-127): list or list of lists" "lvel" (list 100)) (om-load-inputfun (quote input-funbox) "offsets (ms): list or list of lists" "loffset" (list 0)) (om-load-inputfun (quote input-funbox) "MIDI channels (1-16): list or list of lists" "lchan" (list 1)) (om-load-inputfun (quote input-funbox) "relative chords duration (0-100)" "legato" 0))) (om-make-point 431 522) (om-make-point 179 167) (let ((newobj (when (find-class (quote chord-seq) nil) (make-instance (quote chord-seq) :lmidic (quote ((8300) (8400) (8600) (8700) (8900) (9100) (9200) (9400) (9500) (9700) (9400) (9500) (9700) (9800) (10000) (9700) (9800) (10000) (10100) (10300))) :lonset (quote (0 1000 2000 3000 4000 5000 6000 7000 8000 9000 10000 11000 12000 13000 14000 15000 16000 17000 18000 19000 20000)) :ldur (quote ((1000) (1000) (1000) (1000) (1000) (1000) (1000) (1000) (1000) (1000) (1000) (1000) (1000) (1000) (1000) (1000) (1000) (1000) (1000) (1000))) :lvel (quote ((100) (100) (100) (100) (100) (100) (100) (100) (100) (100) (100) (100) (100) (100) (100) (100) (100) (100) (100) (100))) :loffset (quote ((0) (0) (0) (0) (0) (0) (0) (0) (0) (0) (0) (0) (0) (0) (0) (0) (0) (0) (0) (0))) :lchan (quote ((1) (1) (1) (1) (1) (1) (1) (1) (1) (1) (1) (1) (1) (1) (1) (1) (1) (1) (1) (1))) :legato 0)))) (load-port-info newobj (quote ((0) (0) (0) (0) (0) (0) (0) (0) (0) (0) (0) (0) (0) (0) (0) (0) (0) (0) (0) (0)))) (init-mus-color newobj (quote nil)) (set-extra-pairs newobj (quote nil)) (set-patch-pairs newobj (quote nil)) (set-name newobj nil) (set-tonalite newobj nil) newobj) nil nil (pairlis (quote (scale show-stems cursor-mode obj-mode score-mode winpos winsize mode grillestep notechancolor? zoom player inport outport deltapict cmnpref staff fontsize approx)) (list nil (quote t) (quote :normal) 1 0 (om-make-point 395 290) (om-make-point 880 361) 0 1000 nil 27/50 (quote :midi-player) nil nil (om-make-point 0 0) (let ((newobj (make-instance (quote edition-values)))) (setf (paper-size newobj) (om-make-point 600 800)) (setf (top-margin newobj) 2) (setf (left-margin newobj) 1) (setf (right-margin newobj) 1) (setf (bottom-margin newobj) 1) (setf (orientation newobj) nil) (setf (scale newobj) nil) (setf (system-space newobj) (quote (1))) (setf (system-color newobj) (quote nil)) (setf (line-space newobj) 1) (setf (title newobj) nil) (setf (show-title? newobj) nil) (setf (show-page? newobj) nil) (setf (sheet-id newobj) nil) (setf (page-mode newobj) nil) newobj) (quote ggff) 24 2)) t nil nil nil))) (when (fboundp (quote set-active)) (set-active box nil)) box) (let ((box (om-load-boxcall (quote abstraction) "find notes" (om-load-patch-abs1 "find notes" (quote ((let ((box (om-load-boxout "output" 0 (om-make-point 244 407) (quote ((om-load-inputfun (quote input-funbox) "" "out" nil))) nil nil))) (when (fboundp (quote set-active)) (set-active box nil)) box) (let ((box (om-load-boxcall (quote genfun) "FLAT" (quote flat) (quote ((om-load-inputfun (quote input-funbox) "a list" "LST" nil))) (om-make-point 231 207) nil nil nil nil 1))) (when (fboundp (quote set-active)) (set-active box nil)) box) (let ((box (om-load-boxcall (quote genfun) "POSN-MATCH" (quote posn-match) (quote ((om-load-inputfun (quote input-funbox) "a list" "LIST" (list 10 20 30 40 50 60 70 80 90)) (om-load-inputfun (quote input-funbox) "a list positions" "POSITIONS" (list (list 0 1) 4 (list 6))))) (om-make-point 154 348) nil nil nil nil 1))) (when (fboundp (quote set-active)) (set-active box nil)) box) (let ((box (om-load-boxcall (quote lispfun) "NTH" (quote nth) (quote ((om-load-inputfun (quote input-funbox) "ORIG-N" "ORIG-N" nil) (om-load-inputfun (quote input-funbox) "ORIG-LIST" "ORIG-LIST" nil))) (om-make-point 106 150) nil nil nil nil 1))) (when (fboundp (quote set-active)) (set-active box nil)) box) (let ((box (om-load-boxcall (quote lispfun) "SECOND" (quote second) (quote ((om-load-inputfun (quote input-funbox) "LIST" "LIST" nil))) (om-make-point 106 205) nil nil nil nil 1))) (when (fboundp (quote set-active)) (set-active box nil)) box) (let ((box (om-load-boxwithed1 (quote box-with-win) "OMLOOP" (quote omloop) (quote ((om-load-inputfun (quote input-funbox) "" "input0" nil) (om-load-inputfun (quote input-funbox) "" "input1" nil))) (om-make-point 85 282) nil nil nil (list (let ((box (om-load-boxcall (quote genfun) "FLAT" (quote flat) (quote ((om-load-inputfun (quote input-funbox) "a list" "LST" nil))) (om-make-point 352 169) nil nil nil nil 1))) (when (fboundp (quote set-active)) (set-active box nil)) box) (let ((box (om-load-boxcall (quote genfun) "collect" (quote listing) (quote ((om-load-inputfun (quote input-funbox) "anything" "DATA" nil))) (om-make-point 255 168) nil nil nil nil 3))) (when (fboundp (quote set-active)) (set-active box nil)) box) (let ((box (om-load-boxcall (quote genfun) "OM+" (quote om+) (quote ((om-load-inputfun (quote input-funbox) "number or list" "ARG1" 0) (om-load-inputfun (quote input-funbox) "number or list" "ARG2" 0))) (om-make-point 119 193) nil nil nil nil 1))) (when (fboundp (quote set-active)) (set-active box nil)) box) (let ((box (om-load-boxcall (quote genfun) "ARITHM-SER" (quote arithm-ser) (quote ((om-load-inputfun (quote input-funbox) "begin" "BEGIN" 0) (om-load-inputfun (quote input-funbox) "end " "END" 10) (om-load-inputfun (quote input-funbox) "step" "STEP" 1))) (om-make-point 52 241) nil nil nil nil 1))) (when (fboundp (quote set-active)) (set-active box nil)) box) (let ((box (om-load-boxcall (quote genfun) "inlist" (quote listloop) (quote ((om-load-inputfun (quote input-funbox) "list to iterate" "LIST" nil))) (om-make-point 29 160) nil nil nil nil 1))) (when (fboundp (quote set-active)) (set-active box nil)) box) (let ((box (om-load-boxin "input1" 1 (om-make-point 80 44) "" nil nil nil))) (when (fboundp (quote set-active)) (set-active box nil)) box) (let ((box (om-load-boxin "input0" 0 (om-make-point 5 40) "" nil nil nil))) (when (fboundp (quote set-active)) (set-active box nil)) box) (let ((box (om-load-seqbox "finally" (quote finaldo) (quote ((om-load-inputfun (quote input-funbox) "value to return" "VAL" nil))) (om-make-point 300 250) nil nil nil 0))) (when (fboundp (quote set-active)) (set-active box nil)) box) (let ((box (om-load-seqbox "eachTime" (quote loopdo) (quote ((om-load-inputfun (quote input-funbox) "operations to do" "OP" nil))) (om-make-point 200 250) nil nil nil 0))) (when (fboundp (quote set-active)) (set-active box nil)) box)) (quote ((1 1 0 0 nil 0) (3 0 1 0 nil 0) (4 0 2 0 nil 0) (6 0 2 1 nil 0) (4 0 3 0 nil 0) (2 0 3 1 nil 0) (5 0 4 0 nil 0) (0 0 7 0 nil 0) (1 0 8 0 nil 0))) 1 "omloop" nil))) (when (fboundp (quote set-active)) (set-active box nil)) box) (let ((box (om-load-boxin "notes lst" 3 (om-make-point 248 49) "" "notes lst" nil nil))) (when (fboundp (quote set-active)) (set-active box nil)) box) (let ((box (om-load-boxin "patt lst" 2 (om-make-point 168 45) "" "patt lst" nil nil))) (when (fboundp (quote set-active)) (set-active box nil)) box) (let ((box (om-load-boxin "patt index" 1 (om-make-point 79 45) "" "patt index" nil nil))) (when (fboundp (quote set-active)) (set-active box nil)) box) (let ((box (om-load-boxin "patt size" 0 (om-make-point 5 45) "" "patt size" nil nil))) (when (fboundp (quote set-active)) (set-active box nil)) box))) (quote ((2 0 0 0 nil 0) (6 0 1 0 nil 0) (1 0 2 0 nil 0) (5 0 2 1 nil 0) (8 0 3 0 nil 0) (7 0 3 1 nil 0) (3 0 4 0 nil 0) (9 0 5 0 nil 0) (4 0 5 1 nil 0))) 6.1401 nil "" (om-make-point 354 51) (om-make-point 400 500)) (quote ((om-load-inputfun (quote input-funbox) "" "patt size" nil) (om-load-inputfun (quote input-funbox) "" "patt index" nil) (om-load-inputfun (quote input-funbox) "" "patt lst" nil) (om-load-inputfun (quote input-funbox) "" "notes lst" nil))) (om-make-point 277 555) nil (list (list 8300 8400 8600 8700 8900 9100 9200 9400 9500 9700 9400 9500 9700 9800 10000 9700 9800 10000 10100 10300)) nil "find notes"))) (when (fboundp (quote set-active)) (set-active box nil)) box) (let ((box (om-load-boxcall (quote genfun) "FLAT 2" (quote flat) (quote ((om-load-inputfun (quote input-funbox) "a list" "LST" nil))) (om-make-point 535 204) nil nil nil nil 1))) (when (fboundp (quote set-active)) (set-active box nil)) box) (let ((box (om-load-boxcall (quote genfun) "X-APPEND 3" (quote x-append) (quote ((om-load-inputfun (quote input-funbox) "first element" "L1?" nil) (om-load-inputfun (quote input-funbox) "second element" "L2?" nil))) (om-make-point 349 259) nil nil nil nil 1))) (when (fboundp (quote set-active)) (set-active box nil)) box) (let ((box (om-load-editor-box1 "CHORD-SEQ 2" (quote chord-seq) (quote ((om-load-inputfun (quote input-funbox) "object" "self" nil) (om-load-inputfun (quote input-funbox) "pitches (mc): list or list of lists" "lmidic" (list 6000)) (om-load-inputfun (quote input-funbox) "onsets (ms): list" "lonset" (list 0 1000)) (om-load-inputfun (quote input-funbox) "durations (ms): list or list of lists" "ldur" (list 1000)) (om-load-inputfun (quote input-funbox) "velocities (0-127): list or list of lists" "lvel" (list 100)) (om-load-inputfun (quote input-funbox) "offsets (ms): list or list of lists" "loffset" (list 0)) (om-load-inputfun (quote input-funbox) "MIDI channels (1-16): list or list of lists" "lchan" (list 1)) (om-load-inputfun (quote input-funbox) "relative chords duration (0-100)" "legato" 0))) (om-make-point 533 8) (om-make-point 179 167) (let ((newobj (when (find-class (quote chord-seq) nil) (make-instance (quote chord-seq) :lmidic (quote ((10400) (9900) (9400) (10200) (9700) (9200) (9100) (8900) (8800) (8600) (8700) (8500) (8200) (8000) (7900) (7700) (7600) (7400) (7500) (7000) (6500) (6100) (6700) (7200) (7700) (8000) (7700) (8300) (9000) (7600) (8100) (8500) (8900) (7300) (7600) (8100) (8500) (10500) (10000) (9900) (9400) (7100) (7700) (7800) (8400) (10500) (10000) (9900) (9400) (7100) (7700) (7800) (8400) (10500) (10000) (9900) (9400) (7100) (7700) (7800) (8400) (10500) (10000) (9900) (9400) (7100) (7700) (7800) (8400) (10500) (10000) (9900) (9400) (8400) (7800) (7700) (7100) (7000) (6400) (6300) (6200) (5700) (5200) (4100) (4000) (2700))) :lonset (quote (0 1000 2000 3000 4000 5000 5941 6893 7562 8179 8925 9645 10211 10754 11445 11986 12629 13400 14017 14738 15586 16281 16950 17798 18441 19187 19727 20499 21245 22016 22582 23251 24023 24486 25000 25489 26209 27109 27546 28112 28755 29270 29887 30633 31095 31816 32253 32819 33462 33977 34594 35340 35802 36548 36985 37551 38194 38709 39326 40072 40534 41204 41641 42207 42850 43365 43982 44728 45190 45962 46399 46965 47608 48123 48740 49486 49948 50566 51209 52058 52701 53318 53935 54501 55144 55838 56838)) :ldur (quote ((1000) (1000) (1000) (1000) (1000) (1000) (1000) (1000) (1000) (1000) (1000) (1000) (1000) (1000) (1000) (1000) (1000) (1000) (1000) (1000) (1000) (1000) (1000) (1000) (1000) (1000) (1000) (1000) (1000) (1000) (1000) (1000) (1000) (1000) (1000) (1000) (1000) (1000) (1000) (1000) (1000) (1000) (1000) (1000) (1000) (1000) (1000) (1000) (1000) (1000) (1000) (1000) (1000) (1000) (1000) (1000) (1000) (1000) (1000) (1000) (1000) (1000) (1000) (1000) (1000) (1000) (1000) (1000) (1000) (1000) (1000) (1000) (1000) (1000) (1000) (1000) (1000) (1000) (1000) (1000) (1000) (1000) (1000) (1000) (1000) (1000))) :lvel (quote ((100) (100) (100) (100) (100) (100) (100) (100) (100) (100) (100) (100) (100) (100) (100) (100) (100) (100) (100) (100) (100) (100) (100) (100) (100) (100) (100) (100) (100) (100) (100) (100) (100) (100) (100) (100) (100) (100) (100) (100) (100) (100) (100) (100) (100) (100) (100) (100) (100) (100) (100) (100) (100) (100) (100) (100) (100) (100) (100) (100) (100) (100) (100) (100) (100) (100) (100) (100) (100) (100) (100) (100) (100) (100) (100) (100) (100) (100) (100) (100) (100) (100) (100) (100) (100) (100))) :loffset (quote ((0) (0) (0) (0) (0) (0) (0) (0) (0) (0) (0) (0) (0) (0) (0) (0) (0) (0) (0) (0) (0) (0) (0) (0) (0) (0) (0) (0) (0) (0) (0) (0) (0) (0) (0) (0) (0) (0) (0) (0) (0) (0) (0) (0) (0) (0) (0) (0) (0) (0) (0) (0) (0) (0) (0) (0) (0) (0) (0) (0) (0) (0) (0) (0) (0) (0) (0) (0) (0) (0) (0) (0) (0) (0) (0) (0) (0) (0) (0) (0) (0) (0) (0) (0) (0) (0))) :lchan (quote ((1) (1) (1) (1) (1) (1) (1) (1) (1) (1) (1) (1) (1) (1) (1) (1) (1) (1) (1) (1) (1) (1) (1) (1) (1) (1) (1) (1) (1) (1) (1) (1) (1) (1) (1) (1) (1) (1) (1) (1) (1) (1) (1) (1) (1) (1) (1) (1) (1) (1) (1) (1) (1) (1) (1) (1) (1) (1) (1) (1) (1) (1) (1) (1) (1) (1) (1) (1) (1) (1) (1) (1) (1) (1) (1) (1) (1) (1) (1) (1) (1) (1) (1) (1) (1) (1))) :legato 0)))) (load-port-info newobj (quote ((0) (0) (0) (0) (0) (0) (0) (0) (0) (0) (0) (0) (0) (0) (0) (0) (0) (0) (0) (0) (0) (0) (0) (0) (0) (0) (0) (0) (0) (0) (0) (0) (0) (0) (0) (0) (0) (0) (0) (0) (0) (0) (0) (0) (0) (0) (0) (0) (0) (0) (0) (0) (0) (0) (0) (0) (0) (0) (0) (0) (0) (0) (0) (0) (0) (0) (0) (0) (0) (0) (0) (0) (0) (0) (0) (0) (0) (0) (0) (0) (0) (0) (0) (0) (0) (0)))) (init-mus-color newobj (quote nil)) (set-extra-pairs newobj (quote nil)) (set-patch-pairs newobj (quote ((nil (om-load-patch-abs1 "patch" (quote nil) (quote nil) 6.1401 nil "" (om-make-point 200 200) (om-make-point 400 500)))))) (set-name newobj nil) (set-tonalite newobj nil) newobj) "x" nil (pairlis (quote (scale show-stems cursor-mode obj-mode score-mode winpos winsize mode grillestep notechancolor? zoom player inport outport deltapict cmnpref staff fontsize approx)) (list nil (quote t) (quote :normal) 1 0 (om-make-point 400 23) (om-make-point 763 388) 0 1000 nil 27/50 (quote :midi-player) nil nil (om-make-point 0 0) (let ((newobj (make-instance (quote edition-values)))) (setf (paper-size newobj) (om-make-point 600 800)) (setf (top-margin newobj) 2) (setf (left-margin newobj) 1) (setf (right-margin newobj) 1) (setf (bottom-margin newobj) 1) (setf (orientation newobj) nil) (setf (scale newobj) nil) (setf (system-space newobj) (quote (1))) (setf (system-color newobj) (quote nil)) (setf (line-space newobj) 1) (setf (title newobj) nil) (setf (show-title? newobj) nil) (setf (show-page? newobj) nil) (setf (sheet-id newobj) nil) (setf (page-mode newobj) nil) newobj) (quote ggff) 24 2)) t nil nil nil))) (when (fboundp (quote set-active)) (set-active box nil)) box) (let ((box (om-load-boxcall (quote bastype) "aux 3" (quote t) (quote nil) (om-make-point 316 414) (om-make-point 27 30) 3 "3" nil))) (when (fboundp (quote set-active)) (set-active box nil)) box) (let ((box (om-load-boxcall (quote bastype) "aux 2" (quote t) (quote nil) (om-make-point 243 414) (om-make-point 27 30) 4 "4" nil))) (when (fboundp (quote set-active)) (set-active box nil)) box) (let ((box (om-load-boxcall (quote patch-box) "find_patterns" (quote ("elements" "find_motiv" "find_patterns")) (quote ((om-load-inputfun (quote input-funbox) "" "length" nil) (om-load-inputfun (quote input-funbox) "" "seq" nil) (om-load-inputfun (quote input-funbox) "" "rep" nil))) (om-make-point 260 444) nil (list (list (list (list 100 200 100 200) (list 20 25 27 29)) (list (list -500 -100 -500 -2300) (list 72 80 88 96)) (list (list -100 -500 -2300 600) (list 73 81 89 97)) (list (list -500 -2300 600 100) (list 74 82 90 98)) (list (list -2300 600 100 600) (list 75 83 91 99)) (list (list 600 100 600 2100) (list 76 84 92 100)) (list (list 100 600 2100 -500) (list 77 85 93 101)) (list (list 600 2100 -500 -100) (list 78 86 94 102)) (list (list 2100 -500 -100 -500) (list 79 87 95 103)) (list (list 200 100 200 100) (list 24 26 28)))) "x" nil 1))) (when (fboundp (quote set-active)) (set-active box nil)) box) (let ((box (om-load-boxcall (quote genfun) "X->DX" (quote x->dx) (quote ((om-load-inputfun (quote input-funbox) "a list of numbers" "SELF" 0))) (om-make-point 269 357) nil nil nil nil 1))) (when (fboundp (quote set-active)) (set-active box nil)) box) (let ((box (om-load-editor-box1 "CHORD-SEQ" (quote chord-seq) (quote ((om-load-inputfun (quote input-funbox) "object" "self" nil) (om-load-inputfun (quote input-funbox) "pitches (mc): list or list of lists" "lmidic" (list 6000)) (om-load-inputfun (quote input-funbox) "onsets (ms): list" "lonset" (list 0 1000)) (om-load-inputfun (quote input-funbox) "durations (ms): list or list of lists" "ldur" (list 1000)) (om-load-inputfun (quote input-funbox) "velocities (0-127): list or list of lists" "lvel" (list 100)) (om-load-inputfun (quote input-funbox) "offsets (ms): list or list of lists" "loffset" (list 0)) (om-load-inputfun (quote input-funbox) "MIDI channels (1-16): list or list of lists" "lchan" (list 1)) (om-load-inputfun (quote input-funbox) "relative chords duration (0-100)" "legato" 0))) (om-make-point 434 322) (om-make-point 179 167) (let ((newobj (when (find-class (quote chord-seq) nil) (make-instance (quote chord-seq) :lmidic (quote ((3300) (4500) (5700) (6100) (6400) (6700) (7500) (7400) (7600) (7800) (8000) (7800) (8000) (7200) (7100) (7000) (7700) (7800) (8000) (8200) (8300) (8400) (8600) (8700) (8900) (9100) (9200) (9400) (9500) (9700) (9800) (10000) (10100) (10300) (10500) (10400) (9900) (9400) (10200) (9700) (9200) (9100) (8900) (8800) (8600) (8700) (8500) (8200) (8000) (7900) (7700) (7600) (7400) (7500) (7000) (6500) (6100) (6700) (7200) (7700) (8000) (7700) (8300) (9000) (7600) (8100) (8500) (8900) (7300) (7600) (8100) (8500) (10500) (10000) (9900) (9400) (7100) (7700) (7800) (8400) (10500) (10000) (9900) (9400) (7100) (7700) (7800) (8400) (10500) (10000) (9900) (9400) (7100) (7700) (7800) (8400) (10500) (10000) (9900) (9400) (7100) (7700) (7800) (8400) (10500) (10000) (9900) (9400) (8400) (7800) (7700) (7100) (7000) (6400) (6300) (6200) (5700) (5200) (4100) (4000) (2700))) :lonset (quote (0 1000 2000 3000 4000 5000 6000 7000 8000 9000 10000 11000 12000 13000 14000 15000 16000 17000 18000 19000 20000 21000 22000 23000 24000 25000 26000 27000 28000 29000 30000 31000 32000 33000 34000 35000 36000 37000 38000 39000 40000 41000 42000 43000 44000 45000 46000 47000 48000 49000 50000 51000 52000 53000 54000 55000 56000 57000 58000 59000 60000 61000 62000 63000 64000 65000 66000 67000 68000 69000 70000 71000 72000 73000 74000 75000 76000 77000 78000 79000 80000 81000 82000 83000 84000 85000 86000 87000 88000 89000 90000 91000 92000 93000 94000 95000 96000 97000 98000 99000 100000 101000 102000 103000 104000 105000 106000 107000 108000 109000 110000 111000 112000 113000 114000 115000 116000 117000 118000 119000 120000 121000)) :ldur (quote ((1000) (1000) (1000) (1000) (1000) (1000) (1000) (1000) (1000) (1000) (1000) (1000) (1000) (1000) (1000) (1000) (1000) (1000) (1000) (1000) (1000) (1000) (1000) (1000) (1000) (1000) (1000) (1000) (1000) (1000) (1000) (1000) (1000) (1000) (1000) (1000) (1000) (1000) (1000) (1000) (1000) (1000) (1000) (1000) (1000) (1000) (1000) (1000) (1000) (1000) (1000) (1000) (1000) (1000) (1000) (1000) (1000) (1000) (1000) (1000) (1000) (1000) (1000) (1000) (1000) (1000) (1000) (1000) (1000) (1000) (1000) (1000) (1000) (1000) (1000) (1000) (1000) (1000) (1000) (1000) (1000) (1000) (1000) (1000) (1000) (1000) (1000) (1000) (1000) (1000) (1000) (1000) (1000) (1000) (1000) (1000) (1000) (1000) (1000) (1000) (1000) (1000) (1000) (1000) (1000) (1000) (1000) (1000) (1000) (1000) (1000) (1000) (1000) (1000) (1000) (1000) (1000) (1000) (1000) (1000) (1000))) :lvel (quote ((100) (100) (100) (100) (100) (100) (100) (100) (100) (100) (100) (100) (100) (100) (100) (100) (100) (100) (100) (100) (100) (100) (100) (100) (100) (100) (100) (100) (100) (100) (100) (100) (100) (100) (100) (100) (100) (100) (100) (100) (100) (100) (100) (100) (100) (100) (100) (100) (100) (100) (100) (100) (100) (100) (100) (100) (100) (100) (100) (100) (100) (100) (100) (100) (100) (100) (100) (100) (100) (100) (100) (100) (100) (100) (100) (100) (100) (100) (100) (100) (100) (100) (100) (100) (100) (100) (100) (100) (100) (100) (100) (100) (100) (100) (100) (100) (100) (100) (100) (100) (100) (100) (100) (100) (100) (100) (100) (100) (100) (100) (100) (100) (100) (100) (100) (100) (100) (100) (100) (100) (100))) :loffset (quote ((0) (0) (0) (0) (0) (0) (0) (0) (0) (0) (0) (0) (0) (0) (0) (0) (0) (0) (0) (0) (0) (0) (0) (0) (0) (0) (0) (0) (0) (0) (0) (0) (0) (0) (0) (0) (0) (0) (0) (0) (0) (0) (0) (0) (0) (0) (0) (0) (0) (0) (0) (0) (0) (0) (0) (0) (0) (0) (0) (0) (0) (0) (0) (0) (0) (0) (0) (0) (0) (0) (0) (0) (0) (0) (0) (0) (0) (0) (0) (0) (0) (0) (0) (0) (0) (0) (0) (0) (0) (0) (0) (0) (0) (0) (0) (0) (0) (0) (0) (0) (0) (0) (0) (0) (0) (0) (0) (0) (0) (0) (0) (0) (0) (0) (0) (0) (0) (0) (0) (0) (0))) :lchan (quote ((1) (1) (1) (1) (1) (1) (1) (1) (1) (1) (1) (1) (1) (1) (1) (1) (1) (1) (1) (1) (1) (1) (1) (1) (1) (1) (1) (1) (1) (1) (1) (1) (1) (1) (1) (1) (1) (1) (1) (1) (1) (1) (1) (1) (1) (1) (1) (1) (1) (1) (1) (1) (1) (1) (1) (1) (1) (1) (1) (1) (1) (1) (1) (1) (1) (1) (1) (1) (1) (1) (1) (1) (1) (1) (1) (1) (1) (1) (1) (1) (1) (1) (1) (1) (1) (1) (1) (1) (1) (1) (1) (1) (1) (1) (1) (1) (1) (1) (1) (1) (1) (1) (1) (1) (1) (1) (1) (1) (1) (1) (1) (1) (1) (1) (1) (1) (1) (1) (1) (1) (1))) :legato 0)))) (load-port-info newobj (quote ((0) (0) (0) (0) (0) (0) (0) (0) (0) (0) (0) (0) (0) (0) (0) (0) (0) (0) (0) (0) (0) (0) (0) (0) (0) (0) (0) (0) (0) (0) (0) (0) (0) (0) (0) (0) (0) (0) (0) (0) (0) (0) (0) (0) (0) (0) (0) (0) (0) (0) (0) (0) (0) (0) (0) (0) (0) (0) (0) (0) (0) (0) (0) (0) (0) (0) (0) (0) (0) (0) (0) (0) (0) (0) (0) (0) (0) (0) (0) (0) (0) (0) (0) (0) (0) (0) (0) (0) (0) (0) (0) (0) (0) (0) (0) (0) (0) (0) (0) (0) (0) (0) (0) (0) (0) (0) (0) (0) (0) (0) (0) (0) (0) (0) (0) (0) (0) (0) (0) (0) (0)))) (init-mus-color newobj (quote nil)) (set-extra-pairs newobj (quote nil)) (set-patch-pairs newobj (quote nil)) (set-name newobj nil) (set-tonalite newobj nil) newobj) nil nil (pairlis (quote (scale show-stems cursor-mode obj-mode score-mode winpos winsize mode grillestep notechancolor? zoom player inport outport deltapict cmnpref staff fontsize approx)) (list nil (quote t) (quote :normal) 1 0 (om-make-point 400 23) (om-make-point 763 388) 0 1000 nil 27/50 (quote :midi-player) nil nil (om-make-point 0 0) (let ((newobj (make-instance (quote edition-values)))) (setf (paper-size newobj) (om-make-point 600 800)) (setf (top-margin newobj) 2) (setf (left-margin newobj) 1) (setf (right-margin newobj) 1) (setf (bottom-margin newobj) 1) (setf (orientation newobj) nil) (setf (scale newobj) nil) (setf (system-space newobj) (quote (1))) (setf (system-color newobj) (quote nil)) (setf (line-space newobj) 1) (setf (title newobj) nil) (setf (show-title? newobj) nil) (setf (show-page? newobj) nil) (setf (sheet-id newobj) nil) (setf (page-mode newobj) nil) newobj) (quote ggff) 24 2)) t nil nil nil))) (when (fboundp (quote set-active)) (set-active box nil)) box) (let ((box (om-load-boxcall (quote bastype) "aux" (quote t) (quote nil) (om-make-point 209 196) (om-make-point 41 30) 100 "100" nil))) (when (fboundp (quote set-active)) (set-active box nil)) box) (let ((box (om-load-boxcall (quote genfun) "OM*" (quote om*) (quote ((om-load-inputfun (quote input-funbox) "number or list" "ARG1" 1) (om-load-inputfun (quote input-funbox) "number or list" "ARG2" 100))) (om-make-point 181 232) nil nil nil nil 1))) (when (fboundp (quote set-active)) (set-active box nil)) box) (let ((box (om-load-boxcall (quote genfun) "X-APPEND" (quote x-append) (quote ((om-load-inputfun (quote input-funbox) "first element" "L1?" nil) (om-load-inputfun (quote input-funbox) "second element" "L2?" nil) (om-load-inputfun (quote input-funbox) "additional elements" "LST?" nil) (om-load-inputfun (quote input-funbox) "additional elements" "LST?" nil))) (om-make-point 152 143) nil nil nil nil 1))) (when (fboundp (quote set-active)) (set-active box nil)) box) (let ((box (om-load-boxcall (quote bastype) "list 5" (quote list) (quote nil) (om-make-point 306 79) (om-make-point 205 30) (list 92 94 95 97 98 100 101 103 105) "(92 94 95 97 98 100 101 103 105)" nil))) (when (fboundp (quote set-active)) (set-active box nil)) box) (let ((box (om-load-boxcall (quote bastype) "list 4" (quote list) (quote nil) (om-make-point 215 43) (om-make-point 177 30) (list 78 80 82 83 84 86 87 89 91) "(78 80 82 83 84 86 87 89 91)" nil))) (when (fboundp (quote set-active)) (set-active box nil)) box) (let ((box (om-load-boxcall (quote bastype) "list 3" (quote list) (quote nil) (om-make-point 126 80) (om-make-point 159 30) (list 78 80 78 80 72 71 70 77) "(78 80 78 80 72 71 70 77)" nil))) (when (fboundp (quote set-active)) (set-active box nil)) box) (let ((box (om-load-boxcall (quote bastype) "list 2" (quote list) (quote nil) (om-make-point 15 47) (om-make-point 177 30) (list 33 45 57 61 64 67 75 74 76) "(33 45 57 61 64 67 75 74 76)" nil))) (when (fboundp (quote set-active)) (set-active box nil)) box))) (quote ((2 0 1 1 nil 0) (7 0 2 0 nil 0) (0 0 2 1 nil 0) (8 0 2 2 nil 0) (4 0 2 3 nil 0) (5 1 3 0 nil 0) (12 0 4 0 nil 0) (3 0 4 1 nil 0) (7 0 8 0 nil 0) (9 0 8 1 nil 0) (6 0 8 2 nil 0) (4 0 9 0 nil 0) (4 0 10 1 nil 0) (13 0 12 0 nil 0) (11 0 12 1 nil 0) (17 0 13 0 nil 0) (16 0 13 1 nil 0) (15 0 13 2 nil 0) (14 0 13 3 nil 0))) nil 6.1401))
