; OM File Header - Saved 2019/05/16 16:16:04
; (6.15 :patc (om-make-point 118 10) (om-make-point 0 23) (om-make-point 1366 685) "" 183 0 "2019/04/29 19:21:45" "2019/05/16 9:15:24")
; End File Header
(in-package :om)(load-lib-for (quote nil))(setf *om-current-persistent* (om-load-patch1 "acordes alfabeto" (quote ((let ((box (om-load-boxcomment "comment" (om-make-point 100 60) (quote "acordes alfabeto") "" (om-make-point 953 447) nil (om-make-color 0 0 0) (om-make-font "Verdana" 12 :family "Verdana" :style (quote (:plain)) :mode (quote nil))))) (when (fboundp (quote set-active)) (set-active box nil)) box) (let ((box (om-load-editor-box1 "CHORD-SEQ" (quote chord-seq) (quote ((om-load-inputfun (quote input-funbox) "object" "self" nil) (om-load-inputfun (quote input-funbox) "pitches (mc): list or list of lists" "lmidic" (list 6000)) (om-load-inputfun (quote input-funbox) "onsets (ms): list" "lonset" (list 0 1000)) (om-load-inputfun (quote input-funbox) "durations (ms): list or list of lists" "ldur" (list 1000)) (om-load-inputfun (quote input-funbox) "velocities (0-127): list or list of lists" "lvel" (list 100)) (om-load-inputfun (quote input-funbox) "offsets (ms): list or list of lists" "loffset" (list 0)) (om-load-inputfun (quote input-funbox) "MIDI channels (1-16): list or list of lists" "lchan" (list 1)) (om-load-inputfun (quote input-funbox) "relative chords duration (0-100)" "legato" 0))) (om-make-point 319 434) (om-make-point 606 164) (let ((newobj (when (find-class (quote chord-seq) nil) (make-instance (quote chord-seq) :lmidic (quote ((7300 7600 7800 8100 8400 7400 8700 6700 7200 7300 7600) (7700 7800 6200 6900 7500) (8200 6600 6500 6700 7200 7600) (7700 8300 6200 6900) (7500 8200 6200 6900 7500 8200 6400) (6500 6700 6800 7200) (7900 8800 6200 6900) (7500 8200 7300 7600 7800 8100 8400 7300 7600) (7800 8100 8400 7100 7000 7200) (7900 7700 7800 8000) (6700 7200 7300 7600 7700 7800 7200 7600 8300 6200 6900) (7500 8200 6700 7200 7300 7600 7700 7800 6800 7300 7600) (7800 8100 6700 7200 7300 7600 7700) (7800 7300 7600 7800 8100 8400 7300 7900) (8800 6900 7600 7800 8000 6800) (7100 7200 7900 6400 6900 7200 7700 8200) (8600 7000 8100 8500) (8600 6300 6200 6400 7200 7900) (8900 9000 9200 6200 6900 7500 8200))) :lonset (quote (0 1000 2000 3000 4000 5000 6000 7000 8000 9000 10000 11000 12000 13000 14000 15000 16000 17000 18000 19000)) :ldur (quote ((1000 1000 1000 1000 1000 1000 1000 1000 1000 1000 1000) (1000 1000 1000 1000 1000) (1000 1000 1000 1000 1000 1000) (1000 1000 1000 1000) (1000 1000 1000 1000 1000 1000 1000) (1000 1000 1000 1000) (1000 1000 1000 1000) (1000 1000 1000 1000 1000 1000 1000 1000 1000) (1000 1000 1000 1000 1000 1000) (1000 1000 1000 1000) (1000 1000 1000 1000 1000 1000 1000 1000 1000 1000 1000) (1000 1000 1000 1000 1000 1000 1000 1000 1000 1000 1000) (1000 1000 1000 1000 1000 1000 1000) (1000 1000 1000 1000 1000 1000 1000 1000) (1000 1000 1000 1000 1000 1000) (1000 1000 1000 1000 1000 1000 1000 1000) (1000 1000 1000 1000) (1000 1000 1000 1000 1000 1000) (1000 1000 1000 1000 1000 1000 1000))) :lvel (quote ((100 100 100 100 100 100 100 100 100 100 100) (100 100 100 100 100) (100 100 100 100 100 100) (100 100 100 100) (100 100 100 100 100 100 100) (100 100 100 100) (100 100 100 100) (100 100 100 100 100 100 100 100 100) (100 100 100 100 100 100) (100 100 100 100) (100 100 100 100 100 100 100 100 100 100 100) (100 100 100 100 100 100 100 100 100 100 100) (100 100 100 100 100 100 100) (100 100 100 100 100 100 100 100) (100 100 100 100 100 100) (100 100 100 100 100 100 100 100) (100 100 100 100) (100 100 100 100 100 100) (100 100 100 100 100 100 100))) :loffset (quote ((0 0 0 0 0 0 0 0 0 0 0) (0 0 0 0 0) (0 0 0 0 0 0) (0 0 0 0) (0 0 0 0 0 0 0) (0 0 0 0) (0 0 0 0) (0 0 0 0 0 0 0 0 0) (0 0 0 0 0 0) (0 0 0 0) (0 0 0 0 0 0 0 0 0 0 0) (0 0 0 0 0 0 0 0 0 0 0) (0 0 0 0 0 0 0) (0 0 0 0 0 0 0 0) (0 0 0 0 0 0) (0 0 0 0 0 0 0 0) (0 0 0 0) (0 0 0 0 0 0) (0 0 0 0 0 0 0))) :lchan (quote ((1 1 1 1 1 1 1 1 1 1 1) (1 1 1 1 1) (1 1 1 1 1 1) (1 1 1 1) (1 1 1 1 1 1 1) (1 1 1 1) (1 1 1 1) (1 1 1 1 1 1 1 1 1) (1 1 1 1 1 1) (1 1 1 1) (1 1 1 1 1 1 1 1 1 1 1) (1 1 1 1 1 1 1 1 1 1 1) (1 1 1 1 1 1 1) (1 1 1 1 1 1 1 1) (1 1 1 1 1 1) (1 1 1 1 1 1 1 1) (1 1 1 1) (1 1 1 1 1 1) (1 1 1 1 1 1 1))) :legato 0)))) (load-port-info newobj (quote ((0 0 0 0 0 0 0 0 0 0 0) (0 0 0 0 0) (0 0 0 0 0 0) (0 0 0 0) (0 0 0 0 0 0 0) (0 0 0 0) (0 0 0 0) (0 0 0 0 0 0 0 0 0) (0 0 0 0 0 0) (0 0 0 0) (0 0 0 0 0 0 0 0 0 0 0) (0 0 0 0 0 0 0 0 0 0 0) (0 0 0 0 0 0 0) (0 0 0 0 0 0 0 0) (0 0 0 0 0 0) (0 0 0 0 0 0 0 0) (0 0 0 0) (0 0 0 0 0 0) (0 0 0 0 0 0 0)))) (init-mus-color newobj (quote nil)) (set-extra-pairs newobj (quote nil)) (set-patch-pairs newobj (quote ((nil (om-load-patch-abs1 "patch" (quote nil) (quote nil) 6.15 nil "" (om-make-point 200 200) (om-make-point 400 500)))))) (set-name newobj nil) (set-tonalite newobj nil) newobj) nil nil (pairlis (quote (scale show-stems cursor-mode obj-mode score-mode winpos winsize mode grillestep notechancolor? zoom player inport outport deltapict cmnpref staff fontsize approx)) (list nil (quote t) (quote :normal) 1 0 (om-make-point 400 20) (om-make-point 370 280) 0 1000 nil 1 (quote :midi-player) nil nil (om-make-point 0 0) (let ((newobj (make-instance (quote edition-values)))) (setf (paper-size newobj) (om-make-point 600 800)) (setf (top-margin newobj) 2) (setf (left-margin newobj) 1) (setf (right-margin newobj) 1) (setf (bottom-margin newobj) 1) (setf (orientation newobj) nil) (setf (scale newobj) nil) (setf (system-space newobj) (quote (1))) (setf (system-color newobj) (quote nil)) (setf (line-space newobj) 1) (setf (title newobj) nil) (setf (show-title? newobj) nil) (setf (show-page? newobj) nil) (setf (sheet-id newobj) nil) (setf (page-mode newobj) nil) newobj) (quote g) 24 2)) t nil nil t))) (when (fboundp (quote set-active)) (set-active box nil)) box) (let ((box (om-load-boxcall (quote genfun) "GROUP-LIST 2" (quote group-list) (quote ((om-load-inputfun (quote input-funbox) "list to group" "LIST" (list 1 2 3 4)) (om-load-inputfun (quote input-funbox) "list of group lengths" "SEGMENTATION" (list 1 3)) (om-load-inputfunmenu1 (quote input-funmenu) "normal or circular" "MODE" (quote linear) (list (list "linear" (quote (quote linear))) (list "circular" (quote (quote circular))))))) (om-make-point 220 307) nil nil nil nil 1))) (when (fboundp (quote set-active)) (set-active box nil)) box) (let ((box (om-load-boxcomment "comment" (om-make-point 100 60) (quote "mão esquerda") "" (om-make-point 507 89) nil (om-make-color 0 0 0) (om-make-font "Verdana" 12 :family "Verdana" :style (quote (:plain)) :mode (quote nil))))) (when (fboundp (quote set-active)) (set-active box nil)) box) (let ((box (om-load-boxcall (quote genfun) "GET-MIDI-NOTES" (quote get-midi-notes) (quote ((om-load-inputfun (quote input-funbox) "a MIDI file or sequence" "SELF" nil))) (om-make-point 262 136) nil nil nil nil 1))) (when (fboundp (quote set-active)) (set-active box nil)) box) (let ((box (om-load-boxcall (quote lispfun) "FIRST 2" (quote first) (quote ((om-load-inputfun (quote input-funbox) "LIST" "LIST" nil))) (om-make-point 479 170) nil nil nil nil 1))) (when (fboundp (quote set-active)) (set-active box nil)) box) (let ((box (om-load-boxcall (quote genfun) "MAT-TRANS" (quote mat-trans) (quote ((om-load-inputfun (quote input-funbox) "a list of lists" "MATRIX" nil))) (om-make-point 552 243) nil nil nil nil 1))) (when (fboundp (quote set-active)) (set-active box nil)) box) (let ((box (om-load-boxcall (quote lispfun) "FIRST" (quote first) (quote ((om-load-inputfun (quote input-funbox) "LIST" "LIST" nil))) (om-make-point 543 312) nil nil nil nil 1))) (when (fboundp (quote set-active)) (set-active box nil)) box) (let ((box (om-load-boxcall (quote genfun) "OM*" (quote om*) (quote ((om-load-inputfun (quote input-funbox) "number or list" "ARG1" 0) (om-load-inputfun (quote input-funbox) "number or list" "ARG2" 0))) (om-make-point 329 260) (om-make-point 35 35) nil nil nil 1))) (when (fboundp (quote set-active)) (set-active box nil)) box) (let ((box (om-load-boxcall (quote bastype) "list 2" (quote list) (quote nil) (om-make-point 431 179) (om-make-point 28 28) 100 "100" nil))) (when (fboundp (quote set-active)) (set-active box nil)) box) (let ((box (om-load-boxcall (quote bastype) "list" (quote list) (quote nil) (om-make-point 0 214) (om-make-point 327 28) (list 11 5 6 4 7 4 4 9 6 4 11 11 7 8 6 8 4 6 9 6 11 6 8 7 6 9 8 4) "(11 5 6 4 7 4 4 9 6 4 11 11 7 8 6 8 4 6 9 6 11 6 8 7 6 9 8 4)" nil))) (when (fboundp (quote set-active)) (set-active box nil)) box) (let ((box (om-load-editor-box1 "Acordes alfabeto.mid" (quote midifile) (quote ((om-load-inputfun (quote input-funbox) "object" "self" nil))) (om-make-point 208 44) (om-make-point 50 72) (let ((newobj nil)) (load-port-info newobj (quote nil)) (init-mus-color newobj (quote nil)) (set-extra-pairs newobj (quote nil)) (set-patch-pairs newobj (quote nil)) (set-name newobj "") (set-tonalite newobj nil) newobj) nil nil (pairlis (quote (scale show-stems winpos winsize mode grillestep notechancolor? cmnpref obj-mode zoom deltapict player outport)) (list nil (quote t) (om-make-point 10 40) (om-make-point 370 280) 0 1000 nil (let ((newobj (make-instance (quote edition-values)))) (setf (paper-size newobj) (om-make-point 600 800)) (setf (top-margin newobj) 2) (setf (left-margin newobj) 1) (setf (right-margin newobj) 1) (setf (bottom-margin newobj) 1) (setf (orientation newobj) nil) (setf (scale newobj) nil) (setf (system-space newobj) (quote (1))) (setf (system-color newobj) (quote nil)) (setf (line-space newobj) 1) (setf (title newobj) nil) (setf (show-title? newobj) nil) (setf (show-page? newobj) nil) (setf (sheet-id newobj) nil) (setf (page-mode newobj) nil) newobj) 0 1 (om-make-point 0 0) (quote :midi-player) 0)) nil nil nil nil))) (when (fboundp (quote set-active)) (set-active box nil)) box))) (quote ((2 0 1 1 nil 0) (8 0 2 0 nil 0) (10 0 2 1 nil 0) (11 0 4 0 nil 0) (4 0 5 0 nil 0) (5 0 6 0 nil 0) (6 0 7 0 nil 0) (7 0 8 0 nil 0) (9 0 8 1 nil 0))) nil 6.15))
