; OM File Header - Saved 2019/09/11 8:33:54
; (6.15 :patc (om-make-point 47 32) (om-make-point 50 50) (om-make-point 500 400) "" 183 0 nil "2019/09/11 8:33:54")
; End File Header
(in-package :om)(load-lib-for (quote nil))(setf *om-current-persistent* (om-load-patch1 "concatenate_strings" (quote ((let ((box (om-load-boxout "output" 0 (om-make-point 172 418) (quote ((om-load-inputfun (quote input-funbox) "" "out" nil))) nil nil))) (when (fboundp (quote set-active)) (set-active box nil)) box) (let ((box (om-load-boxin "list of strings" 0 (om-make-point 131 26) "" "list of strings" nil nil))) (when (fboundp (quote set-active)) (set-active box nil)) box) (let ((box (om-load-boxcall (quote genfun) "X-APPEND" (quote x-append) (quote ((om-load-inputfun (quote input-funbox) "first element" "L1?" nil) (om-load-inputfun (quote input-funbox) "second element" "L2?" nil))) (om-make-point 110 219) nil nil nil nil 1))) (when (fboundp (quote set-active)) (set-active box nil)) box) (let ((box (om-load-boxcall (quote bastype) "aux" (quote t) (quote nil) (om-make-point 54 186) (om-make-point 135 30) (list (quote concatenate) (quote (quote string))) "(concatenate 'string)" nil))) (when (fboundp (quote set-active)) (set-active box nil)) box) (let ((box (om-load-boxcall (quote lispfun) "EVAL" (quote eval) (quote ((om-load-inputfun (quote input-funbox) "EXP" "EXP" nil))) (om-make-point 129 311) nil nil nil nil 1))) (when (fboundp (quote set-active)) (set-active box nil)) box) (let ((box (om-load-boxcall (quote lispfun) "FORMAT" (quote format) (quote ((om-load-inputfun (quote input-funbox) "DESTINATION" "DESTINATION" nil) (om-load-inputfun (quote input-funbox) "CONTROL-STRING" "CONTROL-STRING" nil))) (om-make-point 111 366) nil nil nil nil 1))) (when (fboundp (quote set-active)) (set-active box nil)) box) (let ((box (om-load-boxcall (quote genfun) "FLAT" (quote flat) (quote ((om-load-inputfun (quote input-funbox) "a list" "LST" nil))) (om-make-point 149 106) nil nil nil nil 1))) (when (fboundp (quote set-active)) (set-active box nil)) box))) (quote ((5 0 0 0 nil 0) (3 0 2 0 nil 0) (6 0 2 1 nil 0) (2 0 4 0 nil 0) (4 0 5 1 nil 0) (1 0 6 0 nil 0))) nil 6.15))
