; OM File Header - Saved 2019/06/03 18:46:50
; (6.1401 :patc (om-make-point 118 160) (om-make-point 50 50) (om-make-point 375 376) "" 183 0 nil nil)
; End File Header
(in-package :om)(load-lib-for (quote nil))(setf *om-current-persistent* (om-load-patch1 "count-n" (quote ((let ((box (om-load-boxout "output" 0 (om-make-point 180 269) (quote ((om-load-inputfun (quote input-funbox) "" "out" nil))) nil nil))) (when (fboundp (quote set-active)) (set-active box nil)) box) (let ((box (om-load-boxwithed1 (quote box-with-win) "OMLOOP" (quote omloop) (quote ((om-load-inputfun (quote input-funbox) "" "input0" nil) (om-load-inputfun (quote input-funbox) "" "input1" nil))) (om-make-point 178 180) nil nil nil (list (let ((box (om-load-boxcall (quote lispfun) "LIST" (quote list) (quote ((om-load-inputfun (quote input-funbox) "add-input" "add-input" nil) (om-load-inputfun (quote input-funbox) "add-input" "add-input" nil))) (om-make-point 123 291) nil nil nil nil 1))) (when (fboundp (quote set-active)) (set-active box nil)) box) (let ((box (om-load-boxcall (quote genfun) "collect" (quote listing) (quote ((om-load-inputfun (quote input-funbox) "anything" "DATA" nil))) (om-make-point 313 237) nil nil nil nil 3))) (when (fboundp (quote set-active)) (set-active box nil)) box) (let ((box (om-load-boxcall (quote lispfun) "COUNT" (quote count) (quote ((om-load-inputfun (quote input-funbox) "ITEM" "ITEM" nil) (om-load-inputfun (quote input-funbox) "SEQUENCE" "SEQUENCE" nil))) (om-make-point 159 195) nil nil nil nil 1))) (when (fboundp (quote set-active)) (set-active box nil)) box) (let ((box (om-load-boxcall (quote genfun) "inlist" (quote listloop) (quote ((om-load-inputfun (quote input-funbox) "list to iterate" "LIST" nil))) (om-make-point 65 126) nil nil nil nil 1))) (when (fboundp (quote set-active)) (set-active box nil)) box) (let ((box (om-load-boxin "input1" 1 (om-make-point 199 37) "" nil nil nil))) (when (fboundp (quote set-active)) (set-active box nil)) box) (let ((box (om-load-boxin "input0" 0 (om-make-point 67 35) "" nil nil nil))) (when (fboundp (quote set-active)) (set-active box nil)) box) (let ((box (om-load-seqbox "finally" (quote finaldo) (quote ((om-load-inputfun (quote input-funbox) "value to return" "VAL" nil))) (om-make-point 362 318) nil nil nil 0))) (when (fboundp (quote set-active)) (set-active box nil)) box) (let ((box (om-load-seqbox "eachTime" (quote loopdo) (quote ((om-load-inputfun (quote input-funbox) "operations to do" "OP" nil))) (om-make-point 262 318) nil nil nil 0))) (when (fboundp (quote set-active)) (set-active box nil)) box)) (quote ((3 0 0 0 nil 0) (2 0 0 1 nil 0) (0 0 1 0 nil 0) (3 0 2 0 nil 0) (4 0 2 1 nil 0) (5 0 3 0 nil 0) (1 1 6 0 nil 0) (1 0 7 0 nil 0))) 1 nil nil))) (when (fboundp (quote set-active)) (set-active box nil)) box) (let ((box (om-load-boxcall (quote genfun) "REMOVE-DUP" (quote remove-dup) (quote ((om-load-inputfun (quote input-funbox) "list" "LIST" (list 1 2 3 4)) (om-load-inputfun (quote input-funbox) "equality test (function or function name)" "TEST" (quote eq)) (om-load-inputfun (quote input-funbox) "an integer" "DEPTH" 1))) (om-make-point 47 165) nil nil nil nil 1))) (when (fboundp (quote set-active)) (set-active box nil)) box) (let ((box (om-load-boxin "list" 0 (om-make-point 85 43) "" "list" nil nil))) (when (fboundp (quote set-active)) (set-active box nil)) box))) (quote ((1 0 0 0 nil 0) (2 0 1 0 nil 0) (3 0 1 1 nil 0) (3 0 2 0 nil 0))) nil 6.1401))
